# xmcd
#
# Track frame offsets: 
#        150
#        22762
#        35553
#        49605
#        63830
#        76540
#        90424
#        103155
#        115300
#        128841
#        142397
#        154321
#        167795
#        183781
#        197049
#        207408
#        221157
#        231230
#        242331
#        256532
#        266826
#        281130
#        292957
#        303119
#
# Disc length: 4186 seconds
#
# Revision: 2
# Processed by: cddbd v1.5.2PL0 Copyright (c) Steve Scherf et al.
# Submitted via: ExactAudioCopy v0.99pb5
#
DISCID=50105818
DTITLE=Various Artist - Blues Legends CD2
DYEAR=1900
DGENRE=blues
TTITLE0=B.B. King - The Thrill is Gone
TTITLE1=Muddy Waters - (I'm your) Hoochie Coochie Man
TTITLE2=Howlin' Wolf - Smokestack Lightning
TTITLE3=Elmore James - Dust my blues
TTITLE4=Big Mamma Thornton Feat  Johnny Otis and His Orchestra - Hound D
TTITLE4=og
TTITLE5=Etta James - I just want to make love to you
TTITLE6=Tommy Tucker - Hi-Healed Sneakers
TTITLE7=Smiley Lewis - I Hear you knocking
TTITLE8=T-Bone Walker - Call it stormy monday (But Tuesday is just as 
TTITLE8=bad)
TTITLE9=Nina Simone - Gin House Blues
TTITLE10=Aaron Neville - Tell it like it is
TTITLE11=Koko Taylor - Wang Dang Doodle
TTITLE12=John Mayall's Bluesbreakers With Eric Clapton - All your love
TTITLE13=Bobby 'Blue' Bland - Further on up the road
TTITLE14=Dale Hawkins - Susie Q
TTITLE15=Slim Harpo - I'm a king bee
TTITLE16=Chuck Berry - Down the road apiece
TTITLE17=Bo Diddley - Bo Diddley
TTITLE18=Lowell Fulson - Reconsider baby
TTITLE19=Buddy Guy - First time I met the blues
TTITLE20=Otis Rush - So many roads, so many trains
TTITLE21=Littel Walter - My Babe
TTITLE22=Fats Domino - Blue Monday
TTITLE23=Shirley and Lee - Let the good times roll
EXTD=
EXTT0=
EXTT1=
EXTT2=
EXTT3=
EXTT4=
EXTT5=
EXTT6=
EXTT7=
EXTT8=
EXTT9=
EXTT10=
EXTT11=
EXTT12=
EXTT13=
EXTT14=
EXTT15=
EXTT16=
EXTT17=
EXTT18=
EXTT19=
EXTT20=
EXTT21=
EXTT22=
EXTT23=
PLAYORDER=
